# xmcd
#
# Track frame offsets: 
#        150
#        12293
#        29403
#        44305
#        60218
#        74440
#        95124
#        106671
#        119946
#        141367
#
# Disc length: 2036 seconds
#
# Revision: 0
# Processed by: cddbd v1.5.2PL0 Copyright (c) Steve Scherf et al.
# Submitted via: ExactAudioCopyFreeDBPlugin 1.0
#
DISCID=8d07f20a
DTITLE=Green, Travis - A Little Too Late
DYEAR=2014
DGENRE=Blues
TTITLE0=A Little Too Late
TTITLE1=Please Don't Cry
TTITLE2=Everybody Knows
TTITLE3=The Only Love
TTITLE4=Keep You Off My Mind
TTITLE5=Damage Done
TTITLE6=Caroline
TTITLE7=Road Runs Cold
TTITLE8=Salt And Sand
TTITLE9=Don't Forget
EXTD=
EXTT0=
EXTT1=
EXTT2=
EXTT3=
EXTT4=
EXTT5=
EXTT6=
EXTT7=
EXTT8=
EXTT9=
PLAYORDER=
